<?xml version="1.0" encoding="utf-8"?>
<!-- Generator: Adobe Illustrator 25.3.1, SVG Export Plug-In . SVG Version: 6.00 Build 0)  -->
<svg version="1.1" id="Capa_1" xmlns="http://www.w3.org/2000/svg" xmlns:xlink="http://www.w3.org/1999/xlink" x="0px" y="0px"
	 viewBox="0 0 170.7 123.7" style="enable-background:new 0 0 170.7 123.7;" xml:space="preserve">
<style type="text/css">
	.st0{fill:#020203;}
</style>
<g>
	<path class="st0" d="M37.5,1.3h15.5v80.6c0,32-15.7,41.8-36.5,41.8c-5.7,0-12.7-1.3-16.6-2.9l2.3-12.7c3.2,1.3,7.9,2.3,13,2.3
		c13.9,0,22.2-6.3,22.2-29.8V1.3z"/>
	<path class="st0" d="M170.7,116.3c-7,2.5-20.7,6.6-37,6.6c-18.2,0-33.2-4.6-45-15.9C78.3,97,71.8,81,71.8,62.2
		C72,26.3,96.7,0,137.1,0c13.9,0,24.8,3,30,5.5l-3.8,12.7c-6.4-2.9-14.5-5.2-26.6-5.2c-29.3,0-48.4,18.2-48.4,48.4
		c0,30.6,18.4,48.6,46.5,48.6c10.2,0,17.2-1.4,20.7-3.2V70.9H131V58.4h39.7V116.3z"/>
</g>
</svg>
